<svg width="340" height="60" viewBox="0 0 340 60" fill="none" xmlns="http://www.w3.org/2000/svg">
<path fill-rule="evenodd" clip-rule="evenodd" d="M0.325358 43.6714C2.97072 53.5591 14.6726 66.8145 35.0263 55.9062C55.3801 66.8145 67.082 53.5591 69.7273 43.6714C69.7273 43.6714 60.0864 52.5707 52.36 53.3628C45.3711 54.0793 34.9927 44.6148 34.9927 44.6148C34.9927 44.6148 24.6353 54.0785 17.659 53.3628C9.94411 52.5713 0.325358 43.6714 0.325358 43.6714Z" fill="#6C9670"/>
<path fill-rule="evenodd" clip-rule="evenodd" d="M25.9358 8.26012C26.6182 11.6916 27.4023 15.6509 28.0013 18.6787C27.3627 18.8556 26.7366 19.0561 26.1246 19.279C24.3251 16.4132 21.614 13.1964 18.4827 13.1296C13.4072 13.0212 13.3216 21.3184 13.8924 27.1839C13.8924 27.1839 20.0071 22.9038 24.4594 22.9038C28.9117 22.9038 34.9927 30.2203 34.9927 30.2203C34.9927 30.2203 40.8062 22.9038 45.0697 22.9038C49.3332 22.9038 55.113 27.1251 55.113 27.1251C55.6795 21.2619 55.5826 13.0031 50.5188 13.1112C47.4829 13.176 44.8421 16.2016 43.044 18.9976C42.6948 18.884 42.3414 18.7777 41.9841 18.6787C42.5831 15.6509 43.3673 11.6916 44.0496 8.26012H42.286C40.261 11.5055 39.1945 15.1009 38.6327 17.9879C37.4479 17.8245 36.2321 17.7395 34.9927 17.7395C33.7534 17.7395 32.5375 17.8245 31.3527 17.9879C30.791 15.1009 29.7244 11.5055 27.6995 8.26012H25.9358Z" fill="#6C9670"/>
<path d="M52.36 53.3628C60.0864 52.5707 69.7273 43.6714 69.7273 43.6714C71.6754 36.3899 64.4039 38.2084 60.4354 39.6729C62.9155 38.5135 66.5669 36.4042 67.7044 33.6345C69.6723 28.843 61.9076 27.4529 55.113 27.1251C55.113 27.1251 49.3332 22.9038 45.0697 22.9038C40.8062 22.9038 34.9927 30.2203 34.9927 30.2203C34.9927 30.2203 28.9117 22.9038 24.4594 22.9038C20.0071 22.9038 13.8924 27.1839 13.8924 27.1839C7.37736 27.6038 0.480925 29.0877 2.34832 33.6345C3.48582 36.4042 7.13716 38.5135 9.61732 39.6729C5.64877 38.2084 -1.62275 36.3899 0.325358 43.6714C0.325358 43.6714 9.94411 52.5713 17.659 53.3628C24.6353 54.0785 34.9927 44.6148 34.9927 44.6148C34.9927 44.6148 45.3711 54.0793 52.36 53.3628Z" fill="#6C9670"/>
<path d="M52.36 53.3628C60.0864 52.5707 69.7273 43.6714 69.7273 43.6714C71.6754 36.3899 64.4039 38.2084 60.4354 39.6729C62.9155 38.5135 66.5669 36.4042 67.7044 33.6345C69.6723 28.843 61.9076 27.4529 55.113 27.1251C55.113 27.1251 49.3332 22.9038 45.0697 22.9038C40.8062 22.9038 34.9927 30.2203 34.9927 30.2203C34.9927 30.2203 28.9117 22.9038 24.4594 22.9038C20.0071 22.9038 13.8924 27.1839 13.8924 27.1839C7.37736 27.6038 0.480925 29.0877 2.34832 33.6345C3.48582 36.4042 7.13716 38.5135 9.61732 39.6729C5.64877 38.2084 -1.62275 36.3899 0.325358 43.6714C0.325358 43.6714 9.94411 52.5713 17.659 53.3628C24.6353 54.0785 34.9927 44.6148 34.9927 44.6148C34.9927 44.6148 45.3711 54.0793 52.36 53.3628Z" fill="#6C9670" fill-opacity="0.5" style="mix-blend-mode:multiply"/>
<path fill-rule="evenodd" clip-rule="evenodd" d="M27.6995 8.26012H25.9358C25.9358 8.26012 19.8483 2.01187 23.4926 0.233008C27.3032 -1.62705 27.6995 8.26012 27.6995 8.26012Z" fill="#6C9670"/>
<path fill-rule="evenodd" clip-rule="evenodd" d="M27.6995 8.26012H25.9358C25.9358 8.26012 19.8483 2.01187 23.4926 0.233008C27.3032 -1.62705 27.6995 8.26012 27.6995 8.26012Z" fill="url(#paint0_linear_73_1328)"/>
<path fill-rule="evenodd" clip-rule="evenodd" d="M42.286 8.26012C42.286 8.26012 42.6822 -1.62705 46.4928 0.233008C50.1371 2.01187 44.0496 8.26012 44.0496 8.26012H42.286Z" fill="#6C9670"/>
<path fill-rule="evenodd" clip-rule="evenodd" d="M42.286 8.26012C42.286 8.26012 42.6822 -1.62705 46.4928 0.233008C50.1371 2.01187 44.0496 8.26012 44.0496 8.26012H42.286Z" fill="url(#paint1_linear_73_1328)"/>
<path d="M43.1993 51.5115C39.9675 53.3247 36.3541 52.604 34.9998 49.1772C34.0374 52.6062 30.615 53.6099 26.8365 52.2148" stroke="#151514" stroke-width="1.5561" stroke-miterlimit="16" stroke-linecap="round" stroke-linejoin="round"/>
<path d="M44.6524 34.8972C41.3121 38.6984 37.8702 46.1287 40.9833 48.8546C44.0964 51.5805 52.5857 48.5697 55.926 44.7685C59.2664 40.9673 59.6952 33.4702 56.5821 30.7444C53.469 28.0185 47.9928 31.096 44.6524 34.8972Z" fill="black"/>
<path d="M46.1246 30.5384C46.1246 30.5384 46.1468 39.4144 47.356 40.6079C48.5883 41.8244 50.7383 41.6039 50.7383 41.6039C50.7383 41.6039 48.3348 41.6148 47.1025 42.8312C45.8933 44.0248 46.1246 53.1241 46.1246 53.1241C46.1246 53.1241 46.1315 44.0248 44.9224 42.8312C43.69 41.6148 41.1951 41.6039 41.1951 41.6039C41.1951 41.6039 43.69 41.8244 44.9224 40.6079C46.1315 39.4144 46.1246 30.5384 46.1246 30.5384Z" fill="#D09FF5"/>
<path opacity="0.5" d="M51.9991 41.1672C52.3378 40.5688 52.9584 40.2798 53.3859 40.5217C53.8133 40.7636 53.8857 41.4447 53.547 42.0432C53.2083 42.6414 52.5867 42.9306 52.1593 42.6887C51.732 42.4467 51.6606 41.7655 51.9991 41.1672ZM47.9171 37.6701C48.2053 36.6114 49.6067 34.8509 50.6652 35.1389C51.7239 35.4273 52.0393 37.6555 51.7511 38.7141C51.4629 39.7727 50.3704 40.3968 49.3116 40.1086C48.2532 39.82 47.6288 38.7285 47.9171 37.6701Z" fill="#D09FF5"/>
<path d="M25.3316 34.8972C28.6719 38.6984 32.1138 46.1287 29.0007 48.8546C25.8876 51.5805 17.3983 48.5697 14.058 44.7685C10.7176 40.9673 10.2888 33.4702 13.4019 30.7444C16.515 28.0185 21.9912 31.096 25.3316 34.8972Z" fill="black"/>
<path d="M23.7824 30.5384C23.7824 30.5384 23.7606 39.4144 22.5715 40.6079C21.3598 41.8244 19.2455 41.6039 19.2455 41.6039C19.2455 41.6039 21.609 41.6148 22.8207 42.8312C24.0098 44.0248 23.7824 53.1241 23.7824 53.1241C23.7824 53.1241 23.7756 44.0248 24.9645 42.8312C26.1764 41.6148 28.6298 41.6039 28.6298 41.6039C28.6298 41.6039 26.1764 41.8244 24.9645 40.6079C23.7756 39.4144 23.7824 30.5384 23.7824 30.5384Z" fill="#D09FF5"/>
<path opacity="0.5" d="M17.9847 41.1663C17.6461 40.5684 17.0254 40.2794 16.598 40.5208C16.1706 40.7627 16.0982 41.4448 16.4369 42.0433C16.7756 42.6415 17.3972 42.9307 17.8246 42.6888C18.252 42.4468 18.3234 41.7647 17.9847 41.1663ZM22.0668 37.6702C21.7786 36.6115 20.3773 34.8508 19.3187 35.139C18.26 35.4274 17.9446 37.6556 18.2328 38.7141C18.5211 39.7727 19.6136 40.3968 20.6722 40.1087C21.7307 39.8202 22.355 38.7286 22.0668 37.6702Z" fill="#D09FF5"/>
<path d="M185.922 30.4094C184.995 31.9769 183.971 33.5444 183.043 35.1119C181.188 35.1119 178.629 35.1119 176.805 35.1119C177.829 33.1925 178.789 31.2412 179.844 29.2898C180.164 29.2898 178.528 29.2898 178.848 29.2898C179.296 28.586 179.744 27.8502 180.192 27.1145C179.2 27.1145 178.208 27.1145 177.217 27.1145C177.121 27.1145 177.025 27.2744 176.961 27.3384C175.649 29.9296 174.338 32.5208 173.026 35.0799C172.066 35.0799 166.148 35.1119 165.188 35.1119C166.18 33.2245 167.172 31.3691 168.164 29.5137C168.643 29.5137 169.155 29.5457 169.667 29.5457C170.691 27.6263 171.714 25.7069 172.77 23.7875C172.194 23.7875 171.618 23.7875 171.043 23.7875C172.706 20.6525 174.37 17.5495 176.033 14.4145C176.609 14.4145 177.185 14.4145 177.792 14.4145C178.112 13.8387 178.4 13.2309 178.72 12.6551C180.224 12.6551 189.629 12.6551 191.132 12.6551C191.132 12.815 191.132 13.7747 191.132 13.9347C189.149 17.6135 187.133 21.2923 185.118 24.9712C185.694 24.9712 186.27 24.9392 186.846 24.9392C185.886 26.7626 184.894 28.586 183.935 30.4094C183.647 30.4094 186.21 30.4094 185.922 30.4094ZM177.856 24.6513C178.272 24.6833 178.72 24.6833 179.136 24.6513C180.544 21.9961 181.983 19.309 183.391 16.6538C182.943 16.6218 182.527 16.6218 182.111 16.6538C181.599 17.6135 178.368 23.6916 177.856 24.6513Z" fill="#B2F59F"/>
<path d="M161.312 35.1119C156.354 35.1119 151.427 35.0799 146.469 35.048C147.46 33.1925 148.484 31.3371 149.476 29.4817C149.316 29.4817 148.356 29.4497 148.196 29.4497C149.06 27.8183 154.466 17.7095 155.33 16.078C155.522 16.078 156.642 16.11 156.833 16.078C157.441 14.9584 158.081 13.8067 158.689 12.6551C161.952 12.6551 165.215 12.6871 168.478 12.6551C169.182 14.4145 169.853 16.142 170.557 17.8694C170.461 17.9974 170.045 18.8291 169.949 18.9571C167.518 18.9571 165.087 18.9891 162.656 18.9251C160.736 22.0601 158.817 25.1951 156.897 28.3301C159.553 28.3941 162.24 28.3941 164.895 28.3941C164.447 29.2258 161.728 34.2802 161.312 35.1119ZM172.636 13.9347C172.189 14.7984 171.741 15.6301 171.293 16.4939C170.781 15.2143 170.269 13.9347 169.757 12.6551C170.717 12.6551 171.677 12.6551 172.636 12.6551C172.636 13.1029 172.636 13.5188 172.636 13.9347ZM165.565 26.5707C163.358 26.5707 161.119 26.5707 158.911 26.5707C160.287 24.2674 161.056 23.1477 162.464 20.8445C163.199 20.8445 167.87 20.8765 168.638 20.8765C168.19 21.7082 166.013 25.7389 165.565 26.5707Z" fill="#B2F59F"/>
<path d="M143.65 31.1452C141.666 32.4568 139.683 33.7684 137.732 35.1119C134.053 35.1119 130.374 35.0799 126.695 35.048C127.687 33.1925 128.71 31.3371 129.702 29.4817C129.542 29.4817 128.582 29.4497 128.423 29.4497C129.286 27.8183 134.693 17.7095 135.556 16.078C135.748 16.078 136.868 16.11 137.06 16.078C137.668 14.9584 138.307 13.8067 138.915 12.6551C140.387 12.6551 149.408 12.6551 150.879 12.6551C151.295 13.5508 151.743 14.4145 152.159 15.2783C149.312 20.5566 146.465 25.8669 143.65 31.1452ZM141.602 18.3813C141.858 18.3813 143.33 18.3813 143.586 18.3813C143.746 18.1253 143.938 17.9014 144.098 17.6775C144.002 17.6775 143.394 17.6775 143.298 17.6775C143.586 17.1976 143.874 16.7178 144.162 16.2379C143.97 16.2379 143.042 16.2379 142.882 16.2379C142.434 16.9417 142.018 17.6775 141.602 18.3813ZM137.028 27.8822C137.444 27.8822 139.523 27.8822 139.907 27.8502C140.355 27.0825 140.803 26.3147 141.25 25.515C140.867 25.515 138.851 25.451 138.435 25.483C137.987 26.2827 137.508 27.0825 137.028 27.8822ZM141.538 35.1119C140.675 35.1119 139.843 35.1119 139.011 35.1119C140.323 34.2162 141.634 33.3525 142.946 32.4888C142.754 32.8087 141.698 34.792 141.538 35.1119Z" fill="#B2F59F"/>
<path d="M121.754 35.0799C119.323 35.0799 104.256 35.0799 101.825 35.0799C102.912 33.2885 104 31.4971 105.088 29.7057C109.15 29.7057 113.213 29.6737 117.276 29.6737C117.468 29.2578 117.692 28.8419 117.915 28.4261C116.572 28.4261 108.223 28.4261 106.847 28.4261C107.679 26.9225 112.637 17.6135 113.437 16.078C113.629 16.078 114.748 16.11 114.94 16.078C115.164 15.6621 116.572 13.1029 116.796 12.6551C117.756 12.6551 123.77 12.6551 124.761 12.6551C122.394 17.0697 120.059 21.4843 117.724 25.9309C118.267 25.9309 118.811 25.8989 119.355 25.8989C119.419 25.8989 119.355 25.9309 119.419 25.9309C119.835 25.9309 120.219 25.9309 120.603 25.9309C122.682 22.1241 124.729 18.3173 126.745 14.5105C128.632 14.5105 130.519 14.5105 132.375 14.5105C131.191 16.6858 129.976 18.8931 128.76 21.1004C128.76 21.4843 128.76 21.8362 128.76 22.188C127.64 24.2674 126.489 26.3467 125.369 28.4261C124.569 28.4581 123.77 28.4581 123.002 28.4581C122.746 28.8739 122.522 29.2898 122.298 29.7376C123.162 29.7376 124.026 29.7376 124.889 29.7376C123.834 31.5291 122.81 33.2885 121.754 35.0799ZM117.628 29.2578C117.692 29.0978 117.468 29.5457 117.372 29.7057C117.404 29.6417 117.596 29.2898 117.628 29.2578Z" fill="#B2F59F"/>
<path d="M98.3925 35.1119C93.9459 35.1119 89.4993 35.0799 85.0527 35.048C86.1724 33.1925 87.324 31.3371 88.4437 29.4817C88.0598 29.4817 85.6605 29.4497 85.2767 29.4497C86.1404 27.8183 91.5467 17.7095 92.4104 16.078C92.6023 16.078 93.722 16.11 93.9139 16.078C94.5217 14.9584 95.1295 13.8067 95.7693 12.6551C96.729 12.6551 102.839 12.6551 103.831 12.6551C101.495 17.0697 99.1283 21.4843 96.793 25.9309C96.9529 25.9309 97.8806 25.9309 98.0726 25.9309C98.7124 25.8989 102.647 25.8989 103.319 25.8989C101.655 28.9699 100.024 32.0409 98.3925 35.1119ZM105.27 22.0601C103.543 22.0601 101.783 22.0601 100.056 22.0601C101.719 18.9251 103.351 15.7901 105.014 12.6871C106.774 12.6871 108.533 12.6871 110.293 12.6871C108.629 15.7901 106.966 18.9251 105.27 22.0601Z" fill="#B2F59F"/>
<path d="M327.993 35.1759C323.034 35.1759 318.108 35.1439 313.149 35.1119C314.141 33.2565 315.165 31.4011 316.156 29.5457C315.997 29.5457 315.037 29.5137 314.877 29.5137C315.741 27.8822 321.147 17.7734 322.011 16.142C322.203 16.142 323.322 16.1739 323.514 16.142C324.122 15.0223 324.762 13.8707 325.37 12.7191C328.632 12.7191 331.895 12.751 335.158 12.7191C335.862 14.4785 336.534 16.2059 337.238 17.9334C337.142 18.0613 336.726 18.8931 336.63 19.021C334.199 19.021 331.767 19.053 329.336 18.9891C327.417 22.1241 325.497 25.2591 323.578 28.3941C326.233 28.458 328.92 28.458 331.576 28.458C331.128 29.2898 328.409 34.3442 327.993 35.1759ZM339.317 13.9986C338.869 14.8624 338.421 15.6941 337.974 16.5578C337.462 15.2782 336.95 13.9986 336.438 12.7191C337.398 12.7191 338.357 12.7191 339.317 12.7191C339.317 13.1669 339.317 13.5828 339.317 13.9986ZM332.246 26.6346C330.039 26.6346 327.799 26.6346 325.592 26.6346C326.968 24.3314 327.737 23.2117 329.144 20.9084C329.88 20.9084 334.551 20.9404 335.318 20.9404C334.87 21.7722 332.694 25.8029 332.246 26.6346Z" fill="#D09FF5"/>
<path d="M319.753 13.9666C319.401 14.6704 319.049 15.3422 318.665 16.014C318.058 14.8943 317.418 13.8067 316.81 12.687C317.77 12.687 318.761 12.687 319.753 12.687C319.753 13.1349 319.753 13.5508 319.753 13.9666ZM308.429 35.1439C306.605 35.1439 304.782 35.1439 302.99 35.1439C302.99 34.9839 302.99 33.9922 302.99 33.8643C303.406 33.0325 306.093 28.0741 306.509 27.2744C305.198 27.2744 303.918 27.2744 302.607 27.2744C302.031 28.362 301.423 29.4817 300.847 30.5693C300.655 30.5693 299.472 30.5693 299.248 30.5693C298.32 32.0729 297.36 33.5764 296.401 35.0799C295.281 35.0799 294.129 35.0799 293.01 35.0799C293.01 34.792 293.01 34.4721 293.01 34.1842C293.01 34.0562 292.946 33.8963 293.01 33.7683C296.784 26.7625 300.527 19.7248 304.27 12.687C306.093 12.687 307.917 12.687 309.708 12.687C309.74 12.9429 309.804 13.8067 309.708 14.0306C309.26 14.8623 308.813 15.6941 308.365 16.5258C309.644 16.5258 310.924 16.5258 312.172 16.5258C312.236 16.5258 312.172 16.6218 312.204 16.6218C312.907 15.3102 313.611 13.9986 314.315 12.687C314.731 12.687 315.115 12.687 315.53 12.687C316.362 14.1906 317.194 15.6621 318.058 17.1656C314.827 23.1477 311.628 29.1298 308.429 35.1439Z" fill="#D09FF5"/>
<path d="M287.786 35.1759C283.339 35.1759 278.893 35.1439 274.446 35.1119C275.566 33.2565 276.717 31.4011 277.837 29.5457C277.453 29.5457 275.054 29.5137 274.67 29.5137C275.534 27.8822 280.94 17.7734 281.804 16.142C281.996 16.142 283.115 16.1739 283.307 16.142C283.915 15.0223 284.523 13.8707 285.163 12.7191C286.122 12.7191 292.233 12.7191 293.224 12.7191C290.889 17.1336 288.522 21.5482 286.186 25.9948C286.346 25.9948 287.274 25.9948 287.466 25.9948C288.106 25.9628 292.041 25.9628 292.712 25.9628C291.049 29.0339 289.417 32.1049 287.786 35.1759ZM294.664 22.1241C292.936 22.1241 291.177 22.1241 289.449 22.1241C291.113 18.9891 292.744 15.8541 294.408 12.751C296.167 12.751 297.927 12.751 299.686 12.751C298.023 15.8541 296.359 18.9891 294.664 22.1241Z" fill="#D09FF5"/>
<path d="M280.206 13.9666C279.854 14.6704 279.502 15.3422 279.118 16.014C278.51 14.8943 277.87 13.8067 277.263 12.687C278.222 12.687 279.214 12.687 280.206 12.687C280.206 13.1349 280.206 13.5508 280.206 13.9666ZM268.881 35.1439C267.058 35.1439 265.235 35.1439 263.443 35.1439C263.443 34.9839 263.443 33.9922 263.443 33.8643C265.267 30.4094 267.122 26.9865 268.945 23.5636C267.634 23.5636 266.322 23.5636 265.011 23.5636C263.795 25.8988 262.547 28.2341 261.3 30.5693C261.108 30.5693 259.924 30.5693 259.7 30.5693C258.773 32.0729 257.813 33.5764 256.853 35.0799C255.734 35.0799 254.582 35.0799 253.462 35.0799C253.462 34.792 253.462 34.4721 253.462 34.1842C253.462 34.0562 253.398 33.8963 253.462 33.7683C257.237 26.7625 260.98 19.7248 264.723 12.687C268.465 12.687 272.24 12.719 275.983 12.687C276.815 14.1906 277.647 15.6621 278.51 17.1656C275.279 23.1477 272.08 29.1298 268.881 35.1439ZM266.802 20.2366C267.73 20.2686 268.657 20.2686 269.617 20.2366C269.713 20.2366 269.937 20.3006 270.001 20.2046C270.513 19.2769 270.993 18.3172 271.505 17.3575C271.089 17.3256 268.721 17.3575 268.306 17.3895C267.794 18.3492 267.282 19.2769 266.802 20.2366Z" fill="#D09FF5"/>
<path d="M243.823 35.1119C242.255 35.1119 232.786 35.0799 231.251 35.0799C232.339 33.3205 233.426 31.529 234.514 29.7376C236.049 29.7376 237.553 29.7376 239.056 29.7376C239.44 29.0338 241.839 24.5553 242.223 23.8195C241.68 23.8195 241.104 23.8195 240.528 23.8195C242.191 20.6845 243.855 17.5815 245.518 14.4465C246.094 14.4465 246.67 14.4465 247.278 14.4465C247.566 13.8707 247.886 13.2628 248.205 12.687C249.709 12.687 259.114 12.687 260.617 12.687C260.617 12.847 260.617 13.8067 260.617 13.9666C258.218 18.3492 255.851 22.7638 253.452 27.1464C251.212 27.1464 248.941 27.1464 246.702 27.1464C246.606 27.1464 246.51 27.3064 246.446 27.3704C246.286 27.7222 246.094 28.0741 245.934 28.426C246.478 28.426 246.99 28.426 247.534 28.426C246.286 30.6653 245.07 32.8726 243.823 35.1119ZM247.342 24.6832C247.758 24.7152 248.205 24.7152 248.621 24.6832C250.029 22.0281 251.468 19.3409 252.876 16.6858C252.428 16.6538 252.012 16.6538 251.596 16.6858C251.053 17.6455 247.854 23.7235 247.342 24.6832Z" fill="#D09FF5"/>
<path d="M239.378 13.9666C239.026 14.6704 238.674 15.3422 238.29 16.014C237.682 14.8943 237.042 13.8067 236.434 12.687C237.394 12.687 238.386 12.687 239.378 12.687C239.378 13.1349 239.378 13.5508 239.378 13.9666ZM228.053 35.1439C226.23 35.1439 224.406 35.1439 222.615 35.1439C222.615 34.9839 222.615 33.9922 222.615 33.8643C224.438 30.4094 226.294 26.9865 228.117 23.5636C226.806 23.5636 225.494 23.5636 224.182 23.5636C222.967 25.8988 221.719 28.2341 220.472 30.5693C220.28 30.5693 219.096 30.5693 218.872 30.5693C217.944 32.0729 216.985 33.5764 216.025 35.0799C214.905 35.0799 213.754 35.0799 212.634 35.0799C212.634 34.792 212.634 34.4721 212.634 34.1842C212.634 34.0562 212.57 33.8963 212.634 33.7683C216.409 26.7625 220.152 19.7248 223.894 12.687C227.637 12.687 231.412 12.719 235.155 12.687C235.987 14.1906 236.818 15.6621 237.682 17.1656C234.451 23.1477 231.252 29.1298 228.053 35.1439ZM225.974 20.2366C226.901 20.2686 227.829 20.2686 228.789 20.2366C228.885 20.2366 229.109 20.3006 229.173 20.2046C229.685 19.2769 230.164 18.3172 230.676 17.3575C230.26 17.3256 227.893 17.3575 227.477 17.3895C226.965 18.3492 226.454 19.2769 225.974 20.2366Z" fill="#D09FF5"/>
<path d="M190.171 35.1439C187.324 35.1439 181.662 35.1439 181.662 35.1439C181.662 35.1439 184.729 28.1169 185.885 25.9628C186.269 25.9628 188.604 25.9309 188.988 25.9309C191.355 21.5163 193.69 17.1337 196.057 12.7191C196.441 12.7191 198.617 12.6551 199 12.6551C200.824 12.6551 212.116 12.6551 213.94 12.6551C214.004 12.6551 213.972 12.6871 214.004 12.6871C215.155 12.6871 216.275 12.6871 217.395 12.7191C217.395 13.1349 217.395 13.5508 217.395 13.9987C216.563 15.5342 215.731 17.0697 214.931 18.6052C215.763 18.6052 216.627 18.6052 217.459 18.6052C216.435 20.3646 215.379 22.1561 214.356 23.9475C213.588 23.9475 212.82 23.9475 212.052 23.9475C210.069 27.6583 208.054 31.4011 206.07 35.1439C204.247 35.1439 202.423 35.1439 200.632 35.1439C200.632 34.6961 200.632 34.2802 200.632 33.8643C203.447 28.586 206.23 23.3397 209.045 18.0934C208.15 18.0934 207.222 18.0934 206.294 18.0934C203.351 23.7555 200.408 29.3858 197.465 35.048C196.409 35.048 195.354 35.048 194.266 35.048C194.266 34.6001 194.266 34.1842 194.266 33.7684C196.985 28.554 199.704 23.3397 202.423 18.0934C201.72 18.0934 200.984 18.0934 200.28 18.0934C200.024 18.6052 198.393 21.6122 198.137 22.0921C197.817 22.0921 197.497 22.0921 197.177 22.0921C194.842 26.4427 192.507 30.7933 190.171 35.1439Z" fill="#D09FF5"/>
<path d="M86.0924 53.9876V41.6987H90.1679C90.7224 41.6987 91.1868 41.7819 91.5611 41.9482C91.9353 42.1146 92.2195 42.371 92.4136 42.7176C92.6215 43.0641 92.7255 43.5147 92.7255 44.0692V51.3468C92.7255 52.0261 92.6077 52.5598 92.372 52.9479C92.1363 53.3361 91.8037 53.6064 91.3739 53.7589C90.9581 53.9114 90.4659 53.9876 89.8976 53.9876H86.0924ZM88.1509 52.9271H89.5857C89.9322 52.9271 90.2095 52.8301 90.4174 52.636C90.6254 52.4281 90.7293 52.0469 90.7293 51.4924V44.2979C90.7293 43.7434 90.6254 43.3622 90.4174 43.1542C90.2095 42.9463 89.9322 42.8423 89.5857 42.8423H88.1509V52.9271ZM97.1364 53.9876V41.6987H102.667V43.1127H99.2158V46.8347H102.064V48.3942H99.2158V52.6152H102.667V53.9876H97.1364ZM109.507 54.1331C108.827 54.1331 108.238 54.0292 107.739 53.8212C107.24 53.6133 106.859 53.246 106.596 52.7192C106.346 52.1924 106.221 51.4508 106.221 50.4943V49.7873C106.554 49.7873 106.894 49.7873 107.24 49.7873C107.587 49.7873 107.926 49.7873 108.259 49.7873V50.6607C108.259 51.2429 108.315 51.6934 108.425 52.0122C108.536 52.3311 108.689 52.5529 108.883 52.6776C109.077 52.7885 109.299 52.844 109.548 52.844C109.95 52.844 110.269 52.7123 110.505 52.4489C110.754 52.1716 110.879 51.6587 110.879 50.9102C110.879 50.3557 110.796 49.9398 110.63 49.6626C110.463 49.3853 110.2 49.1635 109.839 48.9972C109.493 48.817 109.042 48.616 108.488 48.3942C108.03 48.1862 107.635 47.9437 107.303 47.6664C106.97 47.3892 106.72 47.0357 106.554 46.6059C106.388 46.1762 106.305 45.6425 106.305 45.0049C106.305 44.2286 106.402 43.5978 106.596 43.1127C106.804 42.6136 107.15 42.2532 107.635 42.0314C108.12 41.7957 108.772 41.6779 109.59 41.6779C110.643 41.6779 111.447 41.9205 112.002 42.4057C112.556 42.877 112.834 43.5701 112.834 44.485V45.9198C112.515 45.9198 112.189 45.9198 111.856 45.9198C111.538 45.9198 111.212 45.9198 110.879 45.9198V45.0672C110.879 44.4296 110.775 43.9721 110.567 43.6949C110.373 43.4038 110.054 43.2582 109.611 43.2582C109.153 43.2582 108.821 43.3968 108.613 43.6741C108.419 43.9375 108.321 44.3603 108.321 44.9425C108.321 45.4415 108.419 45.8297 108.613 46.1069C108.807 46.3703 109.056 46.5782 109.361 46.7307C109.68 46.8832 110.006 47.0218 110.338 47.1466C110.962 47.3822 111.468 47.6248 111.856 47.8743C112.245 48.1239 112.529 48.4566 112.709 48.8724C112.889 49.2883 112.979 49.8774 112.979 50.6399C112.979 51.5132 112.834 52.2063 112.543 52.7192C112.265 53.2182 111.863 53.5787 111.337 53.8005C110.824 54.0223 110.214 54.1331 109.507 54.1331ZM117.113 53.9876V41.6987H119.088V53.9876H117.113ZM126.227 54.2163C125.755 54.2163 125.312 54.1401 124.896 53.9876C124.48 53.849 124.14 53.5648 123.877 53.1351C123.628 52.6915 123.503 52.033 123.503 51.1597V44.2979C123.503 43.5493 123.641 42.981 123.919 42.5928C124.196 42.1908 124.584 41.9205 125.083 41.7819C125.582 41.6294 126.157 41.5532 126.809 41.5532C127.46 41.5532 128.036 41.6294 128.535 41.7819C129.034 41.9344 129.422 42.2116 129.699 42.6136C129.99 43.0018 130.136 43.5632 130.136 44.2979V45.9614H128.202V44.2147C128.202 43.7988 128.14 43.4869 128.015 43.279C127.904 43.0711 127.745 42.9324 127.537 42.8631C127.343 42.7938 127.107 42.7592 126.83 42.7592C126.58 42.7592 126.351 42.7938 126.144 42.8631C125.936 42.9324 125.769 43.0711 125.644 43.279C125.534 43.4869 125.478 43.7988 125.478 44.2147V51.5964C125.478 52.0122 125.534 52.3241 125.644 52.5321C125.769 52.74 125.936 52.8786 126.144 52.9479C126.351 53.0172 126.58 53.0519 126.83 53.0519C127.232 53.0519 127.557 52.9341 127.807 52.6984C128.07 52.4489 128.202 52.0815 128.202 51.5964V49.1012H126.975V47.9575H130.136V53.9876H128.639L128.535 52.9479C128.507 53.0034 128.472 53.0658 128.431 53.1351C128.389 53.1905 128.355 53.239 128.327 53.2806C128.16 53.5301 127.911 53.7519 127.578 53.946C127.259 54.1262 126.809 54.2163 126.227 54.2163ZM134.49 53.9876V41.6987H136.216L139.272 49.9745V41.6987H141.04V53.9876H139.293L136.257 46.1485V53.9876H134.49ZM148.485 54.1331C147.805 54.1331 147.216 54.0292 146.717 53.8212C146.218 53.6133 145.837 53.246 145.573 52.7192C145.324 52.1924 145.199 51.4508 145.199 50.4943V49.7873C145.532 49.7873 145.872 49.7873 146.218 49.7873C146.565 49.7873 146.904 49.7873 147.237 49.7873V50.6607C147.237 51.2429 147.292 51.6934 147.403 52.0122C147.514 52.3311 147.667 52.5529 147.861 52.6776C148.055 52.7885 148.277 52.844 148.526 52.844C148.928 52.844 149.247 52.7123 149.483 52.4489C149.732 52.1716 149.857 51.6587 149.857 50.9102C149.857 50.3557 149.774 49.9398 149.607 49.6626C149.441 49.3853 149.178 49.1635 148.817 48.9972C148.471 48.817 148.02 48.616 147.466 48.3942C147.008 48.1862 146.613 47.9437 146.28 47.6664C145.948 47.3892 145.698 47.0357 145.532 46.6059C145.366 46.1762 145.282 45.6425 145.282 45.0049C145.282 44.2286 145.379 43.5978 145.573 43.1127C145.781 42.6136 146.128 42.2532 146.613 42.0314C147.098 41.7957 147.75 41.6779 148.568 41.6779C149.621 41.6779 150.425 41.9205 150.98 42.4057C151.534 42.877 151.811 43.5701 151.811 44.485V45.9198C151.493 45.9198 151.167 45.9198 150.834 45.9198C150.515 45.9198 150.19 45.9198 149.857 45.9198V45.0672C149.857 44.4296 149.753 43.9721 149.545 43.6949C149.351 43.4038 149.032 43.2582 148.589 43.2582C148.131 43.2582 147.798 43.3968 147.59 43.6741C147.396 43.9375 147.299 44.3603 147.299 44.9425C147.299 45.4415 147.396 45.8297 147.59 46.1069C147.785 46.3703 148.034 46.5782 148.339 46.7307C148.658 46.8832 148.984 47.0218 149.316 47.1466C149.94 47.3822 150.446 47.6248 150.834 47.8743C151.222 48.1239 151.507 48.4566 151.687 48.8724C151.867 49.2883 151.957 49.8774 151.957 50.6399C151.957 51.5132 151.811 52.2063 151.52 52.7192C151.243 53.2182 150.841 53.5787 150.314 53.8005C149.801 54.0223 149.192 54.1331 148.485 54.1331Z" fill="white"/>
<defs>
<linearGradient id="paint0_linear_73_1328" x1="35.0263" y1="0" x2="35.0263" y2="60" gradientUnits="userSpaceOnUse">
<stop stop-color="#B2F59F"/>
<stop offset="0.144231" stop-color="#6C9670" stop-opacity="0"/>
</linearGradient>
<linearGradient id="paint1_linear_73_1328" x1="35.0263" y1="0" x2="35.0263" y2="60" gradientUnits="userSpaceOnUse">
<stop stop-color="#B2F59F"/>
<stop offset="0.134615" stop-color="#6C9670" stop-opacity="0"/>
</linearGradient>
</defs>
</svg>
