<svg width="1208" height="206" viewBox="0 0 1208 206" fill="none" xmlns="http://www.w3.org/2000/svg">
<path d="M250.587 55.1438C402.346 18.4523 366.235 77.7539 289.326 125.206C289.326 125.206 368.36 63.4822 278.101 75.9948C199.571 86.8815 77.6542 150.236 77.6542 150.236C77.6542 150.236 -1.64965 199.496 97.1644 184.314C-157.377 266.811 158.483 77.4123 250.587 55.1438Z" fill="#D9D9D9"/>
<path fill-rule="evenodd" clip-rule="evenodd" d="M337.102 89.1225C325.268 100.786 308.587 113.392 289.357 125.256L289.289 125.159L289.326 125.206C289.289 125.159 289.29 125.158 289.29 125.158L289.293 125.156L289.304 125.147L289.346 125.114C289.384 125.085 289.44 125.04 289.513 124.982C289.66 124.866 289.876 124.694 290.154 124.469C290.711 124.02 291.515 123.364 292.507 122.532C294.492 120.869 297.225 118.508 300.224 115.713C306.222 110.123 313.276 102.803 317.51 95.8769C319.627 92.4135 321.035 89.0541 321.258 86.0623C321.48 83.0746 320.521 80.4527 317.897 78.4526C315.269 76.4494 310.966 75.0662 304.493 74.5763C298.022 74.0864 289.39 74.4901 278.11 76.0538C238.853 81.496 188.747 100.054 148.452 117.253C128.306 125.852 110.613 134.111 97.9567 140.221C91.6286 143.275 86.5598 145.793 83.073 147.546C81.3296 148.423 79.9817 149.109 79.0697 149.575C78.6137 149.809 78.2666 149.987 78.0336 150.107L77.6872 150.286L77.6847 150.287L77.683 150.288L77.682 150.289L77.6713 150.296L77.6287 150.322C77.591 150.346 77.5349 150.381 77.4615 150.428C77.3146 150.52 77.0981 150.658 76.8198 150.836C76.2634 151.193 75.46 151.714 74.4726 152.373C72.4978 153.69 69.7868 155.554 66.8425 157.744C60.9519 162.124 54.1336 167.803 50.4024 173.003C48.5359 175.605 47.4501 178.076 47.6265 180.199C47.8021 182.313 49.2324 184.102 52.4501 185.339C55.6699 186.576 60.6689 187.255 67.9548 187.149C75.2394 187.043 84.8051 186.153 97.1553 184.255L97.1827 184.371C65.3642 194.683 42.4558 200.748 26.9078 203.422C19.1341 204.758 13.1974 205.248 8.90575 204.996C4.61866 204.744 1.95466 203.751 0.751523 202.101C-0.455872 200.446 -0.174851 198.158 1.35332 195.367C2.88293 192.574 5.67201 189.258 9.52225 185.526C17.2236 178.062 29.1839 168.923 43.8499 158.967C73.1826 139.054 113.348 115.869 151.936 96.2692C190.523 76.6704 227.54 60.6548 250.573 55.0859C288.514 45.9126 314.719 42.7375 331.483 43.8794C339.864 44.4503 345.891 46.1007 349.846 48.6257C353.804 51.1529 355.684 54.5559 355.766 58.6198C355.849 62.679 354.138 67.3908 350.932 72.5418C347.725 77.6938 343.019 83.2909 337.102 89.1225ZM77.6542 150.236C77.6267 150.183 77.6272 150.183 77.6281 150.183L77.7154 150.137C77.7744 150.107 77.8624 150.061 77.979 150.001C78.2121 149.881 78.5593 149.702 79.0154 149.469C79.9276 149.002 81.2758 148.316 83.0194 147.44C86.5067 145.686 91.5762 143.168 97.9049 140.113C110.562 134.003 128.257 125.743 148.406 117.143C188.702 99.9436 238.82 81.3803 278.093 75.9358C289.378 74.3714 298.02 73.9667 304.502 74.4574C310.984 74.948 315.314 76.3341 317.969 78.3579C320.628 80.3848 321.602 83.0475 321.377 86.0711C321.152 89.0906 319.732 92.4691 317.611 95.9391C313.369 102.88 306.305 110.209 300.305 115.8C297.305 118.597 294.569 120.96 292.584 122.624C291.591 123.455 290.786 124.113 290.229 124.562C290.202 124.584 290.175 124.605 290.149 124.626C309.013 112.92 325.368 100.52 337.018 89.0376C342.931 83.21 347.63 77.6202 350.831 72.4788C354.031 67.3364 355.729 62.6482 355.647 58.6222C355.566 54.6009 353.709 51.2334 349.782 48.7261C345.852 46.2167 339.847 44.5686 331.475 43.9983C314.73 42.8577 288.539 46.0292 250.601 55.2017C227.582 60.767 190.577 76.7769 151.99 96.3754C113.405 115.973 73.2444 139.156 43.9168 159.065C29.2526 169.02 17.2991 178.154 9.60518 185.612C5.75778 189.341 2.97884 192.647 1.45784 195.425C-0.0646066 198.205 -0.31679 200.435 0.84779 202.031C2.01661 203.633 4.62975 204.625 8.91275 204.877C13.1912 205.128 19.1175 204.64 26.8876 203.304C42.3129 200.652 64.9929 194.658 96.4461 184.484C84.4436 186.306 75.1048 187.164 67.9565 187.268C60.6657 187.374 55.6485 186.696 52.4074 185.45C49.1641 184.204 47.6885 182.384 47.5077 180.208C47.3277 178.041 48.4351 175.541 50.3056 172.934C54.0486 167.717 60.8804 162.029 66.7714 157.648C69.7178 155.457 72.4304 153.591 74.4065 152.274C75.3946 151.615 76.1985 151.093 76.7555 150.736C77.034 150.557 77.2508 150.42 77.3979 150.327C77.4715 150.28 77.5277 150.245 77.5655 150.221L77.6083 150.195L77.6218 150.186C77.6224 150.186 77.6228 150.186 77.6542 150.236ZM77.6542 150.236L77.6227 150.186L77.6266 150.183L77.6542 150.236Z" fill="black"/>
<path d="M116.59 50.0191C-6.73573 11.1534 -8.4441 45.5624 55.3316 90.5461C55.3316 90.5461 -4.98271 38.8037 89.6839 52.3283C153.514 61.4474 253.716 126.253 253.716 126.253C253.716 126.253 378.057 218.751 253.716 175.393C461.493 258.944 191.437 73.6072 116.59 50.0191Z" fill="#FCC9CA"/>
<path fill-rule="evenodd" clip-rule="evenodd" d="M150.024 36.0373C152.114 46.5481 154.516 58.6755 156.351 67.9498C154.394 68.4918 152.477 69.1059 150.602 69.7885C145.09 61.0105 136.786 51.1574 127.194 50.9526C111.648 50.6208 111.386 76.0355 113.134 94.002C93.1783 95.2879 72.0541 99.8333 77.7741 113.76C81.2583 122.244 92.4425 128.705 100.039 132.256C87.8835 127.77 65.6105 122.2 71.5776 144.504C79.6805 174.79 115.524 215.392 177.868 181.98C240.213 215.392 276.056 174.79 284.159 144.504C290.126 122.2 267.853 127.77 255.698 132.256C263.294 128.705 274.479 122.244 277.963 113.76C283.991 99.0837 260.207 94.8258 239.395 93.8217C241.13 75.8625 240.833 50.5652 225.323 50.8963C216.024 51.0948 207.935 60.3623 202.427 68.9266C201.357 68.5789 200.275 68.2531 199.18 67.9499C201.015 58.6755 203.417 46.5481 205.507 36.0373C205.507 36.0373 224.154 16.8986 212.991 11.4498C201.319 5.75239 200.105 36.0373 200.105 36.0373C193.902 45.978 190.636 56.9909 188.915 65.834C185.286 65.3334 181.562 65.0731 177.765 65.0731C173.969 65.0731 170.245 65.3334 166.616 65.834C164.895 56.9909 161.629 45.978 155.426 36.0373C155.426 36.0373 154.212 5.75239 142.54 11.4498C131.377 16.8986 150.024 36.0373 150.024 36.0373ZM177.868 181.98L177.729 181.612L177.765 181.612C177.847 181.612 177.928 181.611 178.008 181.611L177.868 181.98Z" fill="#6C9670"/>
<mask id="mask0_1_380" style="mask-type:alpha" maskUnits="userSpaceOnUse" x="70" y="10" width="216" height="185">
<path fill-rule="evenodd" clip-rule="evenodd" d="M150.023 36.0372C152.114 46.5479 154.515 58.6754 156.35 67.9497C154.394 68.4916 152.476 69.1058 150.602 69.7884C145.09 61.0103 136.786 51.1572 127.194 50.9525C111.648 50.6206 111.386 76.0353 113.134 94.0018C93.178 95.2878 72.0539 99.8332 77.7738 113.76C81.258 122.244 92.4423 128.705 100.039 132.256C87.8833 127.77 65.6103 122.2 71.5774 144.504C79.6803 174.79 115.524 215.392 177.868 181.979C240.213 215.392 276.056 174.79 284.159 144.504C290.126 122.2 267.853 127.77 255.697 132.256C263.294 128.705 274.478 122.244 277.963 113.76C283.99 99.0836 260.207 94.8256 239.395 93.8215C241.13 75.8624 240.833 50.565 225.322 50.8961C216.023 51.0946 207.934 60.3622 202.427 68.9265C201.357 68.5787 200.275 68.2529 199.18 67.9497C201.015 58.6754 203.417 46.5479 205.507 36.0372C205.507 36.0372 224.153 16.8985 212.991 11.4497C201.318 5.75226 200.105 36.0372 200.105 36.0372C193.902 45.9779 190.635 56.9907 188.915 65.8339C185.286 65.3332 181.561 65.073 177.765 65.073C173.969 65.073 170.245 65.3332 166.616 65.8339C164.895 56.9907 161.628 45.9779 155.426 36.0372C155.426 36.0372 154.212 5.75226 142.54 11.4497C131.377 16.8985 150.023 36.0372 150.023 36.0372ZM177.868 181.979L177.728 181.611L177.765 181.611C177.846 181.611 177.927 181.611 178.008 181.611L177.868 181.979Z" fill="#6C9670"/>
</mask>
<g mask="url(#mask0_1_380)">
<g style="mix-blend-mode:multiply" opacity="0.4">
<path d="M168.054 107.494C168.054 107.494 137.78 72.2933 111.155 94.0687L71.6533 97.336L69.0317 124.727C77.4462 135.853 94.8317 150.967 115.802 157.514C132.794 162.819 152.14 162.499 170.973 149.874C177.799 146.353 182.77 147.32 187.131 149.874C222.038 170.314 265.687 155.71 289.12 124.727L286.499 97.336L246.997 94.0687C220.089 72.0616 191.791 104.634 187.131 107.494C182.472 110.354 172.641 111.009 168.054 107.494Z" fill="#3B433A"/>
</g>
<ellipse cx="214.169" cy="18.4814" rx="28.3601" ry="36.1055" fill="url(#paint0_linear_1_380)"/>
<ellipse cx="143.864" cy="18.4814" rx="28.3601" ry="36.1055" fill="url(#paint1_linear_1_380)"/>
</g>
<path d="M158.022 150.47C158.022 150.47 135.314 82.0051 120.308 101.078C110.726 113.257 110.726 128.58 120.308 140.758C129.712 152.711 158.022 150.47 158.022 150.47Z" fill="#151514" stroke="black" stroke-width="0.11916"/>
<path d="M197.583 150.47C197.583 150.47 220.29 82.0052 235.297 101.078C244.879 113.257 244.879 128.58 235.297 140.758C225.893 152.711 197.583 150.47 197.583 150.47Z" fill="#151514" stroke="black" stroke-width="0.11916"/>
<path d="M203.036 164.087C193.137 169.642 182.069 167.434 177.921 156.937C174.973 167.441 164.49 170.515 152.916 166.242" stroke="#151514" stroke-width="4.7664" stroke-miterlimit="16" stroke-linecap="round"/>
<path d="M177.765 152.775C177.765 152.775 183.973 151.503 186.026 148.669C189.656 143.657 165.874 143.657 169.504 148.669C171.558 151.503 177.765 152.775 177.765 152.775Z" fill="#E7FCC9"/>
<g style="mix-blend-mode:plus-lighter">
<path d="M143.686 97.7228C143.686 97.7228 143.755 125.258 147.489 128.961C151.296 132.735 161.381 132.051 161.381 132.051C161.381 132.051 150.513 132.084 146.706 135.858C142.972 139.561 143.686 167.789 143.686 167.789C143.686 167.789 143.708 139.561 139.973 135.858C136.167 132.084 125.99 132.051 125.99 132.051C125.99 132.051 136.167 132.735 139.973 128.961C143.708 125.258 143.686 97.7228 143.686 97.7228Z" fill="#C4A7FF"/>
</g>
<g style="mix-blend-mode:plus-lighter">
<path d="M211.845 97.7228C211.845 97.7228 211.914 125.258 215.649 128.961C219.455 132.735 229.54 132.051 229.54 132.051C229.54 132.051 218.672 132.084 214.866 135.858C211.131 139.561 211.845 167.789 211.845 167.789C211.845 167.789 211.867 139.561 208.132 135.858C204.326 132.084 194.15 132.051 194.15 132.051C194.15 132.051 204.326 132.735 208.132 128.961C211.867 125.258 211.845 97.7228 211.845 97.7228Z" fill="#C4A7FF"/>
</g>
<g style="mix-blend-mode:plus-lighter" opacity="0.5">
<path d="M136.638 122.731C137.338 125.303 135.821 127.955 133.249 128.656C130.677 129.356 128.025 127.839 127.325 125.267C126.624 122.695 127.39 117.284 129.962 116.583C132.534 115.883 135.937 120.16 136.638 122.731Z" fill="#C6B5EB"/>
</g>
<g style="mix-blend-mode:plus-lighter" opacity="0.5">
<path d="M219.13 122.774C218.43 125.346 219.947 127.998 222.519 128.699C225.091 129.399 227.743 127.882 228.443 125.31C229.144 122.738 228.378 117.327 225.806 116.626C223.235 115.926 219.831 120.203 219.13 122.774Z" fill="#C6B5EB"/>
</g>
<g style="mix-blend-mode:plus-lighter" opacity="0.5">
<ellipse cx="126.223" cy="132.183" rx="2.16035" ry="3.02449" transform="rotate(-29.5105 126.223 132.183)" fill="#C6B5EB"/>
</g>
<g style="mix-blend-mode:plus-lighter" opacity="0.5">
<ellipse cx="2.16035" cy="3.02449" rx="2.16035" ry="3.02449" transform="matrix(-0.870265 -0.492583 -0.492583 0.870265 232.915 130.658)" fill="#C6B5EB"/>
</g>
<path d="M706.487 108.315C703.454 113.44 700.107 118.565 697.074 123.69C691.008 123.69 682.641 123.69 676.679 123.69C680.026 117.414 683.164 111.034 686.615 104.655C687.661 104.655 682.312 104.655 683.358 104.655C684.822 102.354 686.286 99.9481 687.75 97.5425C684.508 97.5425 681.266 97.5425 678.024 97.5425C677.71 97.5425 677.396 98.0655 677.187 98.2746C672.899 106.746 668.611 115.218 664.323 123.585C661.185 123.585 641.836 123.69 638.698 123.69C641.941 117.519 645.183 111.453 648.425 105.387C649.994 105.387 651.667 105.491 653.341 105.491C656.688 99.2159 660.035 92.9406 663.486 86.6653C661.603 86.6653 659.721 86.6653 657.838 86.6653C663.277 76.4156 668.715 66.2706 674.154 56.0209C676.037 56.0209 677.919 56.0209 679.906 56.0209C680.952 54.1383 681.894 52.1511 682.939 50.2685C687.855 50.2685 718.604 50.2685 723.52 50.2685C723.52 50.7915 723.52 53.9291 723.52 54.4521C717.035 66.4797 710.446 78.5074 703.857 90.5351C705.74 90.5351 707.622 90.4305 709.505 90.4305C706.367 96.392 703.125 102.354 699.987 108.315C699.046 108.315 707.428 108.315 706.487 108.315ZM680.116 89.4892C681.475 89.5938 682.939 89.5938 684.299 89.4892C688.901 80.8084 693.607 72.0229 698.209 63.3421C696.745 63.2375 695.385 63.2375 694.026 63.3421C692.352 66.4797 681.789 86.3515 680.116 89.4892Z" fill="#B2F59F"/>
<path d="M626.025 123.69C609.814 123.69 593.707 123.585 577.496 123.48C580.738 117.414 584.085 111.348 587.327 105.282C586.804 105.282 583.667 105.177 583.144 105.177C585.968 99.8435 603.643 66.7935 606.467 61.4595C607.094 61.4595 610.755 61.5641 611.383 61.4595C613.37 57.7989 615.461 54.0337 617.449 50.2685C628.117 50.2685 638.785 50.3731 649.453 50.2685C651.754 56.0209 653.95 61.6687 656.251 67.3164C655.937 67.7348 654.578 70.4541 654.264 70.8725C646.315 70.8725 638.366 70.977 630.418 70.7679C624.142 81.0175 617.867 91.2672 611.592 101.517C620.273 101.726 629.058 101.726 637.739 101.726C636.275 104.445 627.385 120.97 626.025 123.69ZM663.049 54.4521C661.585 57.276 660.121 59.9953 658.657 62.8191C656.983 58.6356 655.31 54.4521 653.636 50.2685C656.774 50.2685 659.912 50.2685 663.049 50.2685C663.049 51.7328 663.049 53.0924 663.049 54.4521ZM639.93 95.7645C632.714 95.7645 625.393 95.7645 618.176 95.7645C622.673 88.2341 625.188 84.5735 629.79 77.0432C632.196 77.0432 647.466 77.1478 649.976 77.1478C648.511 79.8671 641.395 93.0452 639.93 95.7645Z" fill="#B2F59F"/>
<path d="M568.279 110.721C561.794 115.009 555.31 119.297 548.93 123.69C536.902 123.69 524.875 123.585 512.847 123.48C516.089 117.414 519.436 111.348 522.678 105.282C522.155 105.282 519.018 105.177 518.495 105.177C521.319 99.8435 538.994 66.7935 541.818 61.4595C542.445 61.4595 546.106 61.5641 546.734 61.4595C548.721 57.7989 550.813 54.0337 552.8 50.2685C557.611 50.2685 587.105 50.2685 591.916 50.2685C593.275 53.197 594.74 56.0209 596.099 58.8448C586.791 76.1019 577.483 93.4636 568.279 110.721ZM561.585 68.9899C562.422 68.9899 567.233 68.9899 568.07 68.9899C568.593 68.1532 569.22 67.421 569.743 66.6889C569.429 66.6889 567.442 66.6889 567.128 66.6889C568.07 65.1201 569.011 63.5513 569.952 61.9824C569.325 61.9824 566.292 61.9824 565.769 61.9824C564.304 64.2834 562.945 66.6889 561.585 68.9899ZM546.629 100.053C547.989 100.053 554.787 100.053 556.042 99.9481C557.506 97.4379 558.97 94.9278 560.435 92.3131C559.18 92.3131 552.591 92.1039 551.231 92.2085C549.767 94.8232 548.198 97.4379 546.629 100.053ZM561.376 123.69C558.552 123.69 555.833 123.69 553.113 123.69C557.402 120.761 561.69 117.937 565.978 115.113C565.35 116.159 561.899 122.644 561.376 123.69Z" fill="#B2F59F"/>
<path d="M496.693 123.585C488.745 123.585 439.483 123.585 431.535 123.585C435.091 117.728 438.647 111.871 442.203 106.014C455.485 106.014 468.768 105.91 482.051 105.91C482.678 104.55 483.411 103.19 484.143 101.831C479.75 101.831 452.452 101.831 447.955 101.831C450.674 96.915 466.886 66.4797 469.5 61.4595C470.128 61.4595 473.788 61.5641 474.416 61.4595C475.148 60.0998 479.75 51.7328 480.482 50.2685C483.62 50.2685 503.282 50.2685 506.525 50.2685C498.785 64.7017 491.15 79.1349 483.515 93.6727C485.293 93.6727 487.071 93.5682 488.849 93.5682C489.058 93.5682 488.849 93.6727 489.058 93.6727C490.418 93.6727 491.673 93.6727 492.928 93.6727C499.726 81.2267 506.42 68.7807 513.009 56.3347C519.18 56.3347 525.351 56.3347 531.417 56.3347C527.547 63.4467 523.573 70.6633 519.598 77.8799C519.598 79.1349 519.598 80.2854 519.598 81.4359C515.938 88.2341 512.172 95.0324 508.512 101.831C505.897 101.935 503.282 101.935 500.772 101.935C499.936 103.295 499.203 104.655 498.471 106.119C501.295 106.119 504.119 106.119 506.943 106.119C503.492 111.976 500.145 117.728 496.693 123.585ZM483.201 104.55C483.411 104.027 482.678 105.491 482.365 106.014C482.469 105.805 483.097 104.655 483.201 104.55Z" fill="#B2F59F"/>
<path d="M420.314 123.69C405.776 123.69 391.238 123.585 376.7 123.48C380.361 117.414 384.126 111.348 387.787 105.282C386.532 105.282 378.687 105.177 377.432 105.177C380.256 99.8435 397.932 66.7935 400.756 61.4595C401.383 61.4595 405.044 61.5641 405.671 61.4595C407.658 57.7989 409.646 54.0337 411.737 50.2685C414.875 50.2685 434.851 50.2685 438.094 50.2685C430.459 64.7017 422.719 79.1349 415.084 93.6727C415.607 93.6727 418.64 93.6727 419.268 93.6727C421.359 93.5682 434.224 93.5682 436.42 93.5682C430.982 103.609 425.648 113.649 420.314 123.69ZM442.8 81.0175C437.152 81.0175 431.4 81.0175 425.752 81.0175C431.191 70.7679 436.525 60.5182 441.963 50.3731C447.716 50.3731 453.468 50.3731 459.221 50.3731C453.782 60.5182 448.343 70.7679 442.8 81.0175Z" fill="#B2F59F"/>
<path d="M1170.98 123.899C1154.76 123.899 1138.66 123.794 1122.45 123.69C1125.69 117.623 1129.04 111.557 1132.28 105.491C1131.76 105.491 1128.62 105.387 1128.09 105.387C1130.92 100.053 1148.59 67.0026 1151.42 61.6686C1152.05 61.6686 1155.71 61.7732 1156.33 61.6686C1158.32 58.008 1160.41 54.2428 1162.4 50.4776C1173.07 50.4776 1183.74 50.5822 1194.4 50.4776C1196.7 56.23 1198.9 61.8778 1201.2 67.5255C1200.89 67.9439 1199.53 70.6632 1199.21 71.0815C1191.27 71.0815 1183.32 71.1861 1175.37 70.977C1169.09 81.2266 1162.82 91.4763 1156.54 101.726C1165.22 101.935 1174.01 101.935 1182.69 101.935C1181.23 104.654 1172.34 121.179 1170.98 123.899ZM1208 54.6612C1206.54 57.485 1205.07 60.2043 1203.61 63.0282C1201.93 58.8447 1200.26 54.6612 1198.59 50.4776C1201.73 50.4776 1204.86 50.4776 1208 50.4776C1208 51.9419 1208 53.3015 1208 54.6612ZM1184.88 95.9736C1177.67 95.9736 1170.34 95.9736 1163.13 95.9736C1167.62 88.4432 1170.14 84.7826 1174.74 77.2523C1177.15 77.2523 1192.42 77.3569 1194.93 77.3569C1193.46 80.0762 1186.35 93.2543 1184.88 95.9736Z" fill="#D09FF5"/>
<path d="M1144.04 54.5565C1142.89 56.8575 1141.74 59.0538 1140.48 61.2502C1138.49 57.5896 1136.4 54.0336 1134.41 50.373C1137.55 50.373 1140.79 50.373 1144.04 50.373C1144.04 51.8372 1144.04 53.1969 1144.04 54.5565ZM1107.01 123.794C1101.05 123.794 1095.09 123.794 1089.23 123.794C1089.23 123.271 1089.23 120.029 1089.23 119.611C1090.59 116.891 1099.38 100.68 1100.74 98.0653C1096.45 98.0653 1092.27 98.0653 1087.98 98.0653C1086.09 101.621 1084.11 105.282 1082.23 108.838C1081.6 108.838 1077.73 108.838 1077 108.838C1073.96 113.754 1070.83 118.669 1067.69 123.585C1064.03 123.585 1060.26 123.585 1056.6 123.585C1056.6 122.644 1056.6 121.598 1056.6 120.656C1056.6 120.238 1056.39 119.715 1056.6 119.297C1068.94 96.3919 1081.18 73.3825 1093.42 50.373C1099.38 50.373 1105.34 50.373 1111.2 50.373C1111.3 51.2097 1111.51 54.0336 1111.2 54.7657C1109.73 57.485 1108.27 60.2043 1106.8 62.9236C1110.99 62.9236 1115.17 62.9236 1119.25 62.9236C1119.46 62.9236 1119.25 63.2374 1119.35 63.2374C1121.66 58.9492 1123.96 54.6611 1126.26 50.373C1127.62 50.373 1128.87 50.373 1130.23 50.373C1132.95 55.2886 1135.67 60.0997 1138.49 65.0154C1127.93 84.5734 1117.47 104.131 1107.01 123.794Z" fill="#D09FF5"/>
<path d="M1039.52 123.899C1024.98 123.899 1010.45 123.794 995.909 123.69C999.57 117.623 1003.33 111.557 1007 105.491C1005.74 105.491 997.896 105.387 996.641 105.387C999.465 100.053 1017.14 67.0026 1019.96 61.6686C1020.59 61.6686 1024.25 61.7732 1024.88 61.6686C1026.87 58.008 1028.85 54.2428 1030.95 50.4776C1034.08 50.4776 1054.06 50.4776 1057.3 50.4776C1049.67 64.9108 1041.93 79.344 1034.29 93.8818C1034.82 93.8818 1037.85 93.8818 1038.48 93.8818C1040.57 93.7772 1053.43 93.7772 1055.63 93.7772C1050.19 103.818 1044.86 113.858 1039.52 123.899ZM1062.01 81.2266C1056.36 81.2266 1050.61 81.2266 1044.96 81.2266C1050.4 70.977 1055.73 60.7273 1061.17 50.5822C1066.92 50.5822 1072.68 50.5822 1078.43 50.5822C1072.99 60.7273 1067.55 70.977 1062.01 81.2266Z" fill="#D09FF5"/>
<path d="M1014.74 54.5565C1013.59 56.8575 1012.44 59.0538 1011.18 61.2502C1009.2 57.5896 1007.1 54.0336 1005.12 50.373C1008.26 50.373 1011.5 50.373 1014.74 50.373C1014.74 51.8372 1014.74 53.1969 1014.74 54.5565ZM977.715 123.794C971.754 123.794 965.792 123.794 959.935 123.794C959.935 123.271 959.935 120.029 959.935 119.611C965.897 108.315 971.963 97.124 977.924 85.9331C973.636 85.9331 969.348 85.9331 965.06 85.9331C961.086 93.568 957.007 101.203 952.928 108.838C952.3 108.838 948.431 108.838 947.698 108.838C944.665 113.754 941.528 118.669 938.39 123.585C934.729 123.585 930.964 123.585 927.304 123.585C927.304 122.644 927.304 121.598 927.304 120.656C927.304 120.238 927.094 119.715 927.304 119.297C939.645 96.3919 951.882 73.3825 964.119 50.373C976.356 50.373 988.697 50.4776 1000.93 50.373C1003.65 55.2886 1006.37 60.0997 1009.2 65.0154C998.633 84.5734 988.174 104.131 977.715 123.794ZM970.917 75.0559C973.95 75.1605 976.983 75.1605 980.121 75.0559C980.435 75.0559 981.167 75.265 981.376 74.9513C983.049 71.9182 984.618 68.7806 986.292 65.6429C984.932 65.5383 977.192 65.6429 975.833 65.7475C974.159 68.8851 972.486 71.9182 970.917 75.0559Z" fill="#D09FF5"/>
<path d="M895.788 123.69C890.664 123.69 859.705 123.585 854.685 123.585C858.241 117.833 861.797 111.976 865.353 106.119C870.373 106.119 875.289 106.119 880.205 106.119C881.46 103.818 889.304 89.1753 890.559 86.7698C888.781 86.7698 886.898 86.7698 885.016 86.7698C890.454 76.5201 895.893 66.375 901.332 56.1254C903.214 56.1254 905.097 56.1254 907.084 56.1254C908.025 54.2428 909.071 52.2556 910.117 50.373C915.033 50.373 945.782 50.373 950.697 50.373C950.697 50.8959 950.697 54.0336 950.697 54.5565C942.853 68.8851 935.114 83.3184 927.269 97.647C919.948 97.647 912.522 97.647 905.201 97.647C904.888 97.647 904.574 98.1699 904.365 98.3791C903.842 99.5296 903.214 100.68 902.691 101.831C904.469 101.831 906.143 101.831 907.921 101.831C903.842 109.152 899.867 116.368 895.788 123.69ZM907.293 89.5937C908.653 89.6982 910.117 89.6982 911.477 89.5937C916.079 80.9128 920.785 72.1274 925.387 63.4465C923.923 63.342 922.563 63.342 921.203 63.4465C919.425 66.5842 908.966 86.456 907.293 89.5937Z" fill="#D09FF5"/>
<path d="M881.255 54.5565C880.104 56.8575 878.954 59.0538 877.699 61.2502C875.711 57.5896 873.62 54.0336 871.632 50.373C874.77 50.373 878.012 50.373 881.255 50.373C881.255 51.8372 881.255 53.1969 881.255 54.5565ZM844.23 123.794C838.269 123.794 832.307 123.794 826.45 123.794C826.45 123.271 826.45 120.029 826.45 119.611C832.412 108.315 838.478 97.124 844.439 85.9331C840.151 85.9331 835.863 85.9331 831.575 85.9331C827.601 93.568 823.522 101.203 819.443 108.838C818.815 108.838 814.945 108.838 814.213 108.838C811.18 113.754 808.043 118.669 804.905 123.585C801.244 123.585 797.479 123.585 793.819 123.585C793.819 122.644 793.819 121.598 793.819 120.656C793.819 120.238 793.609 119.715 793.819 119.297C806.16 96.3919 818.397 73.3825 830.634 50.373C842.871 50.373 855.212 50.4776 867.449 50.373C870.168 55.2886 872.887 60.0997 875.711 65.0154C865.148 84.5734 854.689 104.131 844.23 123.794ZM837.432 75.0559C840.465 75.1605 843.498 75.1605 846.636 75.0559C846.95 75.0559 847.682 75.265 847.891 74.9513C849.564 71.9182 851.133 68.7806 852.806 65.6429C851.447 65.5383 843.707 65.6429 842.348 65.7475C840.674 68.8851 839.001 71.9182 837.432 75.0559Z" fill="#D09FF5"/>
<path d="M720.378 123.794C711.07 123.794 692.558 123.794 692.558 123.794C692.558 123.794 702.584 100.82 706.363 93.7773C707.618 93.7773 715.253 93.6727 716.508 93.6727C724.248 79.2395 731.883 64.9109 739.622 50.4777C740.877 50.4777 747.99 50.2685 749.245 50.2685C755.206 50.2685 792.126 50.2685 798.087 50.2685C798.297 50.2685 798.192 50.3731 798.297 50.3731C802.062 50.3731 805.722 50.3731 809.383 50.4777C809.383 51.8374 809.383 53.197 809.383 54.6612C806.664 59.6815 803.944 64.7017 801.33 69.722C804.049 69.722 806.873 69.722 809.592 69.722C806.245 75.4743 802.794 81.3313 799.447 87.1883C796.937 87.1883 794.427 87.1883 791.917 87.1883C785.432 99.3205 778.843 111.557 772.359 123.794C766.397 123.794 760.436 123.794 754.579 123.794C754.579 122.33 754.579 120.97 754.579 119.611C763.782 102.354 772.882 85.2011 782.085 68.0486C779.157 68.0486 776.124 68.0486 773.091 68.0486C763.469 86.5607 753.846 104.968 744.224 123.48C740.773 123.48 737.321 123.48 733.765 123.48C733.765 122.016 733.765 120.657 733.765 119.297C742.655 102.249 751.546 85.2011 760.436 68.0486C758.135 68.0486 755.729 68.0486 753.428 68.0486C752.591 69.722 747.257 79.5533 746.421 81.1221C745.375 81.1221 744.329 81.1221 743.283 81.1221C735.648 95.3462 728.013 109.57 720.378 123.794Z" fill="#D09FF5"/>
<path d="M380.099 183.283V143.105H393.424C395.237 143.105 396.755 143.377 397.979 143.921C399.202 144.465 400.132 145.304 400.766 146.437C401.446 147.57 401.786 149.043 401.786 150.855V174.649C401.786 176.87 401.401 178.615 400.63 179.884C399.86 181.153 398.772 182.037 397.367 182.535C396.007 183.034 394.398 183.283 392.54 183.283H380.099ZM386.83 179.816H391.52C392.653 179.816 393.56 179.499 394.24 178.864C394.92 178.184 395.259 176.938 395.259 175.125V151.603C395.259 149.79 394.92 148.544 394.24 147.864C393.56 147.184 392.653 146.844 391.52 146.844H386.83V179.816ZM416.207 183.283V143.105H434.29V147.728H423.005V159.897H432.319V164.996H423.005V178.796H434.29V183.283H416.207ZM456.651 183.759C454.43 183.759 452.504 183.419 450.872 182.739C449.241 182.059 447.994 180.858 447.133 179.136C446.317 177.414 445.91 174.989 445.91 171.862V169.551C446.997 169.551 448.108 169.551 449.241 169.551C450.374 169.551 451.484 169.551 452.572 169.551V172.406C452.572 174.309 452.753 175.782 453.116 176.825C453.478 177.867 453.977 178.592 454.611 179C455.246 179.363 455.971 179.544 456.787 179.544C458.101 179.544 459.144 179.114 459.914 178.252C460.73 177.346 461.138 175.669 461.138 173.222C461.138 171.409 460.866 170.049 460.322 169.143C459.778 168.236 458.917 167.511 457.739 166.967C456.605 166.378 455.133 165.721 453.32 164.996C451.824 164.316 450.532 163.523 449.445 162.616C448.357 161.71 447.541 160.554 446.997 159.149C446.453 157.744 446.182 155.999 446.182 153.915C446.182 151.377 446.499 149.315 447.133 147.728C447.813 146.097 448.946 144.918 450.532 144.193C452.119 143.423 454.249 143.037 456.923 143.037C460.367 143.037 462.996 143.831 464.809 145.417C466.622 146.958 467.528 149.224 467.528 152.215V156.906C466.486 156.906 465.421 156.906 464.333 156.906C463.29 156.906 462.225 156.906 461.138 156.906V154.119C461.138 152.034 460.798 150.538 460.118 149.632C459.483 148.68 458.441 148.204 456.991 148.204C455.495 148.204 454.407 148.657 453.728 149.564C453.093 150.425 452.776 151.807 452.776 153.711C452.776 155.342 453.093 156.611 453.728 157.518C454.362 158.379 455.178 159.059 456.175 159.557C457.217 160.056 458.282 160.509 459.37 160.917C461.41 161.687 463.064 162.48 464.333 163.296C465.602 164.112 466.531 165.2 467.12 166.559C467.709 167.919 468.004 169.845 468.004 172.338C468.004 175.193 467.528 177.459 466.576 179.136C465.67 180.768 464.356 181.946 462.633 182.671C460.956 183.396 458.962 183.759 456.651 183.759ZM481.518 183.283V143.105H487.976V183.283H481.518ZM511.316 184.031C509.775 184.031 508.324 183.782 506.965 183.283C505.605 182.83 504.495 181.901 503.634 180.496C502.818 179.046 502.41 176.893 502.41 174.037V151.603C502.41 149.156 502.863 147.298 503.77 146.029C504.676 144.714 505.945 143.831 507.577 143.377C509.208 142.879 511.089 142.63 513.219 142.63C515.349 142.63 517.23 142.879 518.862 143.377C520.493 143.876 521.762 144.782 522.669 146.097C523.62 147.366 524.096 149.201 524.096 151.603V157.042H517.774V151.331C517.774 149.972 517.57 148.952 517.162 148.272C516.8 147.592 516.278 147.139 515.599 146.912C514.964 146.686 514.194 146.573 513.287 146.573C512.471 146.573 511.724 146.686 511.044 146.912C510.364 147.139 509.82 147.592 509.412 148.272C509.05 148.952 508.868 149.972 508.868 151.331V175.465C508.868 176.825 509.05 177.845 509.412 178.524C509.82 179.204 510.364 179.657 511.044 179.884C511.724 180.111 512.471 180.224 513.287 180.224C514.601 180.224 515.667 179.839 516.482 179.068C517.343 178.252 517.774 177.051 517.774 175.465V167.307H513.763V163.568H524.096V183.283H519.202L518.862 179.884C518.771 180.065 518.658 180.269 518.522 180.496C518.386 180.677 518.273 180.836 518.182 180.972C517.638 181.787 516.822 182.513 515.735 183.147C514.692 183.736 513.219 184.031 511.316 184.031ZM538.331 183.283V143.105H543.974L553.967 170.162V143.105H559.746V183.283H554.035L544.11 157.654V183.283H538.331ZM584.086 183.759C581.865 183.759 579.939 183.419 578.308 182.739C576.676 182.059 575.43 180.858 574.569 179.136C573.753 177.414 573.345 174.989 573.345 171.862V169.551C574.433 169.551 575.543 169.551 576.676 169.551C577.809 169.551 578.919 169.551 580.007 169.551V172.406C580.007 174.309 580.188 175.782 580.551 176.825C580.914 177.867 581.412 178.592 582.047 179C582.681 179.363 583.406 179.544 584.222 179.544C585.536 179.544 586.579 179.114 587.349 178.252C588.165 177.346 588.573 175.669 588.573 173.222C588.573 171.409 588.301 170.049 587.757 169.143C587.213 168.236 586.352 167.511 585.174 166.967C584.041 166.378 582.568 165.721 580.755 164.996C579.259 164.316 577.968 163.523 576.88 162.616C575.792 161.71 574.977 160.554 574.433 159.149C573.889 157.744 573.617 155.999 573.617 153.915C573.617 151.377 573.934 149.315 574.569 147.728C575.248 146.097 576.381 144.918 577.968 144.193C579.554 143.423 581.684 143.037 584.358 143.037C587.803 143.037 590.431 143.831 592.244 145.417C594.057 146.958 594.963 149.224 594.963 152.215V156.906C593.921 156.906 592.856 156.906 591.768 156.906C590.726 156.906 589.661 156.906 588.573 156.906V154.119C588.573 152.034 588.233 150.538 587.553 149.632C586.919 148.68 585.876 148.204 584.426 148.204C582.93 148.204 581.843 148.657 581.163 149.564C580.528 150.425 580.211 151.807 580.211 153.711C580.211 155.342 580.528 156.611 581.163 157.518C581.797 158.379 582.613 159.059 583.61 159.557C584.653 160.056 585.718 160.509 586.805 160.917C588.845 161.687 590.499 162.48 591.768 163.296C593.037 164.112 593.966 165.2 594.555 166.559C595.145 167.919 595.439 169.845 595.439 172.338C595.439 175.193 594.963 177.459 594.012 179.136C593.105 180.768 591.791 181.946 590.069 182.671C588.392 183.396 586.398 183.759 584.086 183.759Z" fill="#555555"/>
<defs>
<linearGradient id="paint0_linear_1_380" x1="214.169" y1="-17.6241" x2="214.169" y2="54.5868" gradientUnits="userSpaceOnUse">
<stop offset="0.499" stop-color="#E8FCC9"/>
<stop offset="1" stop-color="#8A9678" stop-opacity="0"/>
</linearGradient>
<linearGradient id="paint1_linear_1_380" x1="143.864" y1="-17.6241" x2="143.864" y2="54.5868" gradientUnits="userSpaceOnUse">
<stop offset="0.499" stop-color="#E8FCC9"/>
<stop offset="1" stop-color="#8A9678" stop-opacity="0"/>
</linearGradient>
</defs>
</svg>
