<svg width="113" height="67" viewBox="0 0 113 67" fill="none" xmlns="http://www.w3.org/2000/svg">
<path d="M79.5996 18.4137C127.818 6.7558 116.344 25.5976 91.908 40.6743C91.908 40.6743 117.019 21.063 88.3417 25.0387C63.3905 28.4977 24.654 48.6273 24.654 48.6273C24.654 48.6273 -0.543094 64.2785 30.8529 59.4548C-50.0222 85.6663 50.3354 25.489 79.5996 18.4137Z" fill="#D9D9D9"/>
<path d="M37.0248 16.7855C-2.15905 4.43673 -2.70185 15.3694 17.5615 29.662C17.5615 29.662 -1.60207 13.222 28.4762 17.5192C48.7567 20.4166 80.5936 41.007 80.5936 41.007C80.5936 41.007 120.1 70.3962 80.5936 56.6204C146.61 83.1669 60.8061 24.2801 37.0248 16.7855Z" fill="#FCC9CA"/>
<path fill-rule="evenodd" clip-rule="evenodd" d="M47.6546 8.03889C48.3187 11.3785 49.0818 15.2317 49.6648 18.1784C49.0433 18.3506 48.434 18.5457 47.8384 18.7626C46.0871 15.9736 43.4486 12.843 40.4011 12.7779C35.4616 12.6725 35.3783 20.7474 35.9338 26.4559C29.5932 26.8645 22.8815 28.3087 24.6989 32.7337C25.8059 35.4292 29.3595 37.4821 31.7732 38.6103C27.9109 37.185 20.8342 35.4152 22.7301 42.5017C25.3046 52.1246 36.6931 65.0249 56.5017 54.4088C76.3103 65.0249 87.6987 52.1246 90.2733 42.5017C92.1692 35.4152 85.0924 37.185 81.2302 38.6103C83.6439 37.4821 87.1974 35.4292 88.3045 32.7337C90.2197 28.0705 82.6629 26.7176 76.0504 26.3986C76.6017 20.6925 76.5074 12.6548 71.5792 12.76C68.6247 12.8231 66.0545 15.7676 64.3046 18.4888C63.9648 18.3783 63.6208 18.2747 63.2731 18.1784C63.8561 15.2317 64.6192 11.3785 65.2833 8.03889C65.2833 8.03889 71.2078 1.95799 67.6611 0.226767C63.9525 -1.58347 63.5669 8.03889 63.5669 8.03889C61.5961 11.1973 60.5582 14.6964 60.0115 17.5061C58.8584 17.3471 57.6751 17.2644 56.469 17.2644C55.2628 17.2644 54.0795 17.3471 52.9264 17.5061C52.3798 14.6964 51.3418 11.1973 49.371 8.03889C49.371 8.03889 48.9854 -1.58347 45.2768 0.226767C41.7301 1.95799 47.6546 8.03889 47.6546 8.03889ZM56.5017 54.4088L56.4572 54.2919L56.469 54.2919C56.4947 54.2919 56.5204 54.2919 56.5462 54.2918L56.5017 54.4088Z" fill="#6C9670"/>
<mask id="mask0_1_359" style="mask-type:alpha" maskUnits="userSpaceOnUse" x="22" y="0" width="69" height="59">
<path fill-rule="evenodd" clip-rule="evenodd" d="M47.6546 8.03889C48.3187 11.3785 49.0818 15.2317 49.6648 18.1784C49.0433 18.3506 48.434 18.5457 47.8384 18.7626C46.0871 15.9736 43.4486 12.843 40.4011 12.7779C35.4616 12.6725 35.3783 20.7474 35.9338 26.4559C29.5932 26.8645 22.8815 28.3087 24.6989 32.7337C25.8059 35.4292 29.3595 37.4821 31.7732 38.6103C27.9109 37.185 20.8342 35.4152 22.7301 42.5017C25.3046 52.1246 36.6931 65.0249 56.5017 54.4088C76.3103 65.0249 87.6987 52.1246 90.2733 42.5017C92.1692 35.4152 85.0924 37.185 81.2302 38.6103C83.6439 37.4821 87.1974 35.4292 88.3045 32.7337C90.2197 28.0705 82.6629 26.7176 76.0504 26.3986C76.6017 20.6925 76.5074 12.6548 71.5792 12.76C68.6247 12.8231 66.0545 15.7676 64.3046 18.4888C63.9648 18.3783 63.6208 18.2747 63.2731 18.1784C63.8561 15.2317 64.6192 11.3785 65.2833 8.03889C65.2833 8.03889 71.2078 1.95799 67.6611 0.226767C63.9525 -1.58347 63.5669 8.03889 63.5669 8.03889C61.5961 11.1973 60.5582 14.6964 60.0115 17.5061C58.8584 17.3471 57.6751 17.2644 56.469 17.2644C55.2628 17.2644 54.0795 17.3471 52.9264 17.5061C52.3798 14.6964 51.3418 11.1973 49.371 8.03889C49.371 8.03889 48.9854 -1.58347 45.2768 0.226767C41.7301 1.95799 47.6546 8.03889 47.6546 8.03889ZM56.5017 54.4088L56.4572 54.2919L56.469 54.2919C56.4947 54.2919 56.5204 54.2919 56.5462 54.2918L56.5017 54.4088Z" fill="#6C9670"/>
</mask>
<g mask="url(#mask0_1_359)">
<g style="mix-blend-mode:multiply" opacity="0.4">
<path d="M53.3833 30.7427C53.3833 30.7427 43.7644 19.5585 35.3049 26.4771L22.7542 27.5152L21.9213 36.2182C24.5948 39.753 30.1186 44.5552 36.7815 46.6354C42.1803 48.3209 48.3269 48.2192 54.3109 44.208C56.4796 43.0892 58.0591 43.3965 59.4449 44.208C70.5358 50.7023 84.4042 46.0624 91.8496 36.2182L91.0166 27.5152L78.4659 26.4771C69.9164 19.4849 60.9253 29.8341 59.4449 30.7427C57.9644 31.6514 54.841 31.8596 53.3833 30.7427Z" fill="#3B433A"/>
</g>
<ellipse cx="68.0353" cy="2.46093" rx="9.01079" ry="11.4717" fill="url(#paint0_linear_1_359)"/>
<ellipse cx="45.6977" cy="2.46093" rx="9.01079" ry="11.4717" fill="url(#paint1_linear_1_359)"/>
</g>
<path d="M50.1959 44.3974C50.1959 44.3974 42.981 22.6442 38.213 28.7042C35.1686 32.5737 35.1686 37.4423 38.213 41.3118C41.201 45.1094 50.1959 44.3974 50.1959 44.3974Z" fill="#151514" stroke="black" stroke-width="0.0378605"/>
<path d="M62.7655 44.3973C62.7655 44.3973 69.9804 22.6441 74.7484 28.7042C77.7929 32.5736 77.7929 37.4423 74.7484 41.3117C71.7604 45.1094 62.7655 44.3973 62.7655 44.3973Z" fill="#151514" stroke="black" stroke-width="0.0378605"/>
<path d="M64.4983 48.724C61.353 50.4887 57.8365 49.7872 56.5184 46.4522C55.5818 49.7894 52.2511 50.7663 48.5737 49.4085" stroke="#151514" stroke-width="1.51442" stroke-miterlimit="16" stroke-linecap="round"/>
<path d="M56.469 45.1297C56.469 45.1297 58.4413 44.7258 59.0937 43.8251C60.2471 42.2328 52.6909 42.2328 53.8443 43.8251C54.4967 44.7258 56.469 45.1297 56.469 45.1297Z" fill="#E7FCC9"/>
<g style="mix-blend-mode:plus-lighter">
<path d="M45.6408 27.6381C45.6408 27.6381 45.6628 36.3869 46.8494 37.5634C48.0587 38.7625 51.2631 38.545 51.2631 38.545C51.2631 38.545 47.8099 38.5557 46.6006 39.7547C45.414 40.9313 45.6408 49.9001 45.6408 49.9001C45.6408 49.9001 45.6478 40.9313 44.4612 39.7547C43.2519 38.5557 40.0186 38.545 40.0186 38.545C40.0186 38.545 43.2519 38.7625 44.4612 37.5634C45.6478 36.3869 45.6408 27.6381 45.6408 27.6381Z" fill="#C4A7FF"/>
</g>
<g style="mix-blend-mode:plus-lighter">
<path d="M67.2971 27.6381C67.2971 27.6381 67.319 36.3869 68.5056 37.5634C69.7149 38.7625 72.9194 38.545 72.9194 38.545C72.9194 38.545 69.4662 38.5557 68.2569 39.7547C67.0703 40.9313 67.2971 49.9001 67.2971 49.9001C67.2971 49.9001 67.304 40.9313 66.1174 39.7547C64.9081 38.5557 61.6748 38.545 61.6748 38.545C61.6748 38.545 64.9081 38.7625 66.1174 37.5634C67.304 36.3869 67.2971 27.6381 67.2971 27.6381Z" fill="#C4A7FF"/>
</g>
<g style="mix-blend-mode:plus-lighter" opacity="0.5">
<path d="M43.4014 35.584C43.6239 36.4011 43.1419 37.2439 42.3248 37.4664C41.5077 37.6889 40.665 37.2068 40.4425 36.3897C40.22 35.5726 40.4633 33.8532 41.2804 33.6307C42.0975 33.4082 43.179 34.7669 43.4014 35.584Z" fill="#C6B5EB"/>
</g>
<g style="mix-blend-mode:plus-lighter" opacity="0.5">
<path d="M69.6119 35.5977C69.3894 36.4148 69.8714 37.2576 70.6885 37.48C71.5056 37.7025 72.3483 37.2205 72.5708 36.4034C72.7933 35.5863 72.55 33.8668 71.7329 33.6443C70.9158 33.4219 69.8343 34.7806 69.6119 35.5977Z" fill="#C6B5EB"/>
</g>
<g style="mix-blend-mode:plus-lighter" opacity="0.5">
<ellipse cx="40.0924" cy="38.5871" rx="0.686403" ry="0.960965" transform="rotate(-29.5105 40.0924 38.5871)" fill="#C6B5EB"/>
</g>
<g style="mix-blend-mode:plus-lighter" opacity="0.5">
<ellipse cx="0.686403" cy="0.960965" rx="0.686403" ry="0.960965" transform="matrix(-0.870265 -0.492583 -0.492583 0.870265 73.9916 38.1026)" fill="#C6B5EB"/>
</g>
<defs>
<linearGradient id="paint0_linear_1_359" x1="68.0353" y1="-9.01079" x2="68.0353" y2="13.9327" gradientUnits="userSpaceOnUse">
<stop offset="0.499" stop-color="#E8FCC9"/>
<stop offset="1" stop-color="#8A9678" stop-opacity="0"/>
</linearGradient>
<linearGradient id="paint1_linear_1_359" x1="45.6977" y1="-9.01079" x2="45.6977" y2="13.9327" gradientUnits="userSpaceOnUse">
<stop offset="0.499" stop-color="#E8FCC9"/>
<stop offset="1" stop-color="#8A9678" stop-opacity="0"/>
</linearGradient>
</defs>
</svg>
