<svg width="148" height="226" viewBox="0 0 148 226" fill="none" xmlns="http://www.w3.org/2000/svg">
<path d="M28 18.0272C28 18.0272 29.6531 31.9361 35.5625 37.7347C41.5851 43.6443 56 45.0272 56 45.0272C56 45.0272 41.5851 46.4101 35.5625 52.3196C29.6531 58.1182 28 72.0272 28 72.0272C28 72.0272 26.3469 58.1182 20.4375 52.3196C14.4149 46.4101 0 45.0272 0 45.0272C0 45.0272 14.4149 43.6443 20.4375 37.7347C26.3469 31.9361 28 18.0272 28 18.0272Z" fill="#ECCCFF"/>
<path d="M130.5 133.027C130.5 133.027 131.533 156.724 135.227 166.603C138.991 176.671 148 179.027 148 179.027C148 179.027 138.991 181.383 135.227 191.451C131.533 201.33 130.5 225.027 130.5 225.027C130.5 225.027 129.467 201.33 125.773 191.451C122.009 181.383 113 179.027 113 179.027C113 179.027 122.009 176.671 125.773 166.603C129.467 156.724 130.5 133.027 130.5 133.027Z" fill="#ECCCFF"/>
<path d="M79.5 0.0271912C79.5 0.0271912 82.5405 51.0267 93.4097 72.2882C104.487 93.9565 131 99.0272 131 99.0272C131 99.0272 104.487 104.098 93.4097 125.766C82.5405 147.028 79.5 198.027 79.5 198.027C79.5 198.027 76.4595 147.028 65.5903 125.766C54.5132 104.098 28 99.0272 28 99.0272C28 99.0272 54.5132 93.9565 65.5903 72.2882C76.4595 51.0267 79.5 0.0271912 79.5 0.0271912Z" fill="#ECCCFF"/>
</svg>
