<svg width="131" height="199" viewBox="0 0 131 199" fill="none" xmlns="http://www.w3.org/2000/svg">
<path d="M103 18.0272C103 18.0272 101.347 31.9361 95.4375 37.7347C89.4149 43.6443 75 45.0272 75 45.0272C75 45.0272 89.4149 46.4101 95.4375 52.3196C101.347 58.1182 103 72.0272 103 72.0272C103 72.0272 104.653 58.1182 110.563 52.3196C116.585 46.4101 131 45.0272 131 45.0272C131 45.0272 116.585 43.6443 110.563 37.7347C104.653 31.9361 103 18.0272 103 18.0272Z" fill="#ECCCFF"/>
<path d="M18.5 157.027C18.5 157.027 17.4668 165.785 13.7734 169.436C10.0093 173.156 1 174.027 1 174.027C1 174.027 10.0093 174.898 13.7734 178.619C17.4668 182.27 18.5 191.027 18.5 191.027C18.5 191.027 19.5332 182.27 23.2266 178.619C26.9907 174.898 36 174.027 36 174.027C36 174.027 26.9907 173.156 23.2266 169.436C19.5332 165.785 18.5 157.027 18.5 157.027Z" fill="#ECCCFF"/>
<path d="M51.5 0.0271912C51.5 0.0271912 48.4595 51.0267 37.5903 72.2882C26.5132 93.9565 0 99.0272 0 99.0272C0 99.0272 26.5132 104.098 37.5903 125.766C48.4595 147.028 51.5 198.027 51.5 198.027C51.5 198.027 54.5405 147.028 65.4097 125.766C76.4868 104.098 103 99.0272 103 99.0272C103 99.0272 76.4868 93.9565 65.4097 72.2882C54.5405 51.0267 51.5 0.0271912 51.5 0.0271912Z" fill="#ECCCFF"/>
</svg>
